<svg width="30" height="19" viewBox="0 0 30 19" fill="none" xmlns="http://www.w3.org/2000/svg">
<path d="M28.8182 5.63793C28.7493 5.4398 28.5048 5.2857 28.3006 5.2857C27.4167 5.2857 26.5329 5.2857 25.649 5.2857C25.4449 5.2857 25.2003 5.4398 25.1313 5.63793C25.0638 5.83185 25.0133 6.00488 24.9798 6.16761L23.2085 1.33287C22.9164 0.53563 22.1427 0 21.2835 0H7.73629C6.87705 0 6.10348 0.535629 5.81119 1.33302L4.03985 6.16819C4.00624 6.00532 3.9558 5.83207 3.88822 5.63793C3.81925 5.4398 3.57468 5.2857 3.37062 5.2857C2.48675 5.2857 1.60289 5.2857 0.718943 5.2857C0.514888 5.2857 0.270317 5.4398 0.201343 5.63793C-0.0672001 6.40934 -0.067053 6.85095 0.201417 7.62244C0.270391 7.82057 0.514962 7.97466 0.719017 7.97466C1.60296 7.97466 2.48683 7.97466 3.3707 7.97466C3.3732 7.97466 3.37584 7.97401 3.37842 7.97394L3.33842 8.08327C2.79773 8.2605 2.40734 8.76269 2.40734 9.3557V13.4043V13.738V18.218C2.40734 18.5741 2.69985 18.8627 3.06083 18.8627H6.34975C6.71065 18.8627 7.00323 18.5741 7.00323 18.218V15.0794H22.0165V18.218C22.0165 18.5741 22.3091 18.8627 22.67 18.8627H25.9589C26.3199 18.8627 26.6124 18.5741 26.6124 18.218V13.738V13.4043V9.3557C26.6124 8.76283 26.2222 8.26072 25.6817 8.08334L25.6416 7.97394C25.644 7.97401 25.6466 7.97459 25.649 7.97459C26.533 7.97459 27.4168 7.97459 28.3007 7.97459C28.5048 7.97459 28.7493 7.8205 28.8183 7.62236C29.0868 6.85095 29.0866 6.40934 28.8182 5.63793ZM7.98652 2.37264H21.0315L23.0983 8.0142H5.91972L7.98652 2.37264ZM8.35036 11.9885H5.5989C5.00857 11.9885 4.53009 11.5164 4.53009 10.934C4.53009 10.3517 5.0085 9.87951 5.5989 9.87951H8.35036C8.94061 9.87951 9.41917 10.3516 9.41917 10.934C9.41924 11.5164 8.94061 11.9885 8.35036 11.9885ZM23.4206 11.9885H20.6692C20.0789 11.9885 19.6003 11.5164 19.6003 10.934C19.6003 10.3517 20.0789 9.87951 20.6692 9.87951H23.4206C24.0109 9.87951 24.4894 10.3516 24.4894 10.934C24.4894 11.5164 24.0109 11.9885 23.4206 11.9885Z" fill="#133176"/>
</svg>
